<?xml version="1.0" encoding="UTF-8"?>
<svg xmlns="http://www.w3.org/2000/svg" xmlns:xlink="http://www.w3.org/1999/xlink" width="150px" height="46px" viewBox="0 0 151 46" version="1.1">
<defs>
<filter id="alpha" filterUnits="objectBoundingBox" x="0%" y="0%" width="100%" height="100%">
  <feColorMatrix type="matrix" in="SourceGraphic" values="0 0 0 0 1 0 0 0 0 1 0 0 0 0 1 0 0 0 1 0"/>
</filter>
<mask id="mask0">
  <g filter="url(#alpha)">
<rect x="0" y="0" width="151" height="46" style="fill:rgb(0%,0%,0%);fill-opacity:0.988235;stroke:none;"/>
  </g>
</mask>
<clipPath id="clip1">
  <rect x="0" y="0" width="151" height="46"/>
</clipPath>
<g id="surface5" clip-path="url(#clip1)">
<path style=" stroke:none;fill-rule:evenodd;fill:rgb(99.607843%,100%,99.607843%);fill-opacity:1;" d="M 5.789062 4.570312 C 24.160156 4.550781 42.53125 4.570312 60.902344 4.621094 C 61.78125 4.917969 62.34375 5.519531 62.59375 6.417969 C 62.660156 17.402344 62.660156 28.390625 62.59375 39.378906 C 62.269531 40.488281 61.535156 41.121094 60.390625 41.277344 C 42.359375 41.34375 24.328125 41.34375 6.300781 41.277344 C 5.199219 41.128906 4.464844 40.53125 4.097656 39.480469 C 4.03125 28.425781 4.03125 17.371094 4.097656 6.316406 C 4.40625 5.472656 4.96875 4.890625 5.789062 4.570312 Z M 29.554688 15.554688 C 30.613281 15.539062 31.671875 15.554688 32.730469 15.605469 C 32.851562 15.660156 32.933594 15.742188 32.988281 15.863281 C 33.019531 19.421875 33.054688 22.984375 33.089844 26.542969 C 33.199219 26.613281 33.316406 26.664062 33.449219 26.695312 C 35.496094 26.730469 37.546875 26.765625 39.59375 26.800781 C 39.710938 27.835938 39.730469 28.878906 39.644531 29.929688 C 39.59375 29.980469 39.542969 30.035156 39.492188 30.085938 C 36.121094 30.171875 32.757812 30.152344 29.402344 30.035156 C 29.332031 25.277344 29.332031 20.519531 29.402344 15.761719 C 29.472656 15.707031 29.527344 15.636719 29.554688 15.554688 Z M 42.257812 15.554688 C 43.351562 15.539062 44.445312 15.554688 45.535156 15.605469 C 45.585938 15.660156 45.636719 15.710938 45.6875 15.761719 C 45.722656 17.472656 45.757812 19.183594 45.792969 20.894531 C 45.84375 20.945312 45.894531 20.996094 45.945312 21.050781 C 47.515625 21.117188 49.085938 21.117188 50.65625 21.050781 C 50.707031 20.996094 50.761719 20.945312 50.8125 20.894531 C 50.84375 19.21875 50.878906 17.539062 50.914062 15.863281 C 50.964844 15.8125 51.015625 15.761719 51.066406 15.710938 C 52.195312 15.640625 53.320312 15.640625 54.449219 15.710938 C 54.5 15.761719 54.550781 15.8125 54.601562 15.863281 C 54.671875 20.554688 54.671875 25.242188 54.601562 29.929688 C 54.550781 29.980469 54.5 30.035156 54.449219 30.085938 C 53.320312 30.152344 52.195312 30.152344 51.066406 30.085938 C 51.015625 30.035156 50.964844 29.980469 50.914062 29.929688 C 50.878906 28.183594 50.84375 26.441406 50.8125 24.695312 C 49.195312 24.574219 47.574219 24.558594 45.945312 24.644531 C 45.894531 24.695312 45.84375 24.746094 45.792969 24.796875 C 45.773438 26.566406 45.722656 28.328125 45.636719 30.085938 C 44.453125 30.167969 43.273438 30.152344 42.105469 30.035156 C 42.035156 25.277344 42.035156 20.519531 42.105469 15.761719 C 42.175781 15.707031 42.226562 15.636719 42.257812 15.554688 Z M 12.242188 15.660156 C 16.542969 15.640625 20.847656 15.660156 25.148438 15.710938 C 26.089844 15.964844 26.6875 16.566406 26.941406 17.507812 C 27.011719 21.648438 27.011719 25.789062 26.941406 29.929688 C 26.890625 29.980469 26.839844 30.035156 26.789062 30.085938 C 25.765625 30.152344 24.738281 30.152344 23.714844 30.085938 C 23.664062 30.035156 23.613281 29.980469 23.5625 29.929688 C 23.511719 26.304688 23.492188 22.675781 23.511719 19.046875 C 22.726562 19.046875 21.941406 19.046875 21.15625 19.046875 C 21.171875 22.675781 21.15625 26.304688 21.101562 29.929688 C 20.617188 30.066406 20.105469 30.132812 19.566406 30.136719 C 19.070312 30.117188 18.578125 30.101562 18.082031 30.085938 C 18.03125 30.035156 17.980469 29.980469 17.925781 29.929688 C 17.875 26.304688 17.859375 22.675781 17.875 19.046875 C 17.089844 19.046875 16.304688 19.046875 15.519531 19.046875 C 15.539062 22.710938 15.519531 26.371094 15.46875 30.035156 C 14.34375 30.171875 13.214844 30.171875 12.089844 30.035156 C 12.019531 25.308594 12.019531 20.585938 12.089844 15.863281 C 12.160156 15.808594 12.210938 15.738281 12.242188 15.660156 Z M 12.242188 15.660156 "/>
</g>
<mask id="mask1">
  <g filter="url(#alpha)">
<rect x="0" y="0" width="151" height="46" style="fill:rgb(0%,0%,0%);fill-opacity:0.972549;stroke:none;"/>
  </g>
</mask>
<clipPath id="clip2">
  <rect x="0" y="0" width="151" height="46"/>
</clipPath>
<g id="surface8" clip-path="url(#clip2)">
<path style=" stroke:none;fill-rule:evenodd;fill:rgb(99.607843%,100%,99.607843%);fill-opacity:1;" d="M 71.660156 11.449219 C 75.039062 11.429688 78.417969 11.449219 81.800781 11.5 C 85.667969 12.199219 87.648438 14.527344 87.742188 18.480469 C 87.800781 21.632812 86.433594 23.890625 83.644531 25.257812 C 83.144531 25.445312 82.632812 25.582031 82.109375 25.667969 C 80.09375 25.808594 78.082031 25.859375 76.0625 25.824219 C 76.0625 28.664062 76.0625 31.503906 76.0625 34.347656 C 74.59375 34.347656 73.125 34.347656 71.660156 34.347656 C 71.660156 26.714844 71.660156 19.082031 71.660156 11.449219 Z M 76.0625 15.660156 C 77.667969 15.640625 79.273438 15.660156 80.878906 15.710938 C 82.453125 16.039062 83.273438 17.015625 83.335938 18.636719 C 83.269531 20.089844 82.554688 21.03125 81.1875 21.460938 C 79.480469 21.511719 77.769531 21.527344 76.0625 21.511719 C 76.0625 19.558594 76.0625 17.609375 76.0625 15.660156 Z M 76.0625 15.660156 "/>
</g>
<mask id="mask2">
  <g filter="url(#alpha)">
<rect x="0" y="0" width="151" height="46" style="fill:rgb(0%,0%,0%);fill-opacity:0.976471;stroke:none;"/>
  </g>
</mask>
<clipPath id="clip3">
  <rect x="0" y="0" width="151" height="46"/>
</clipPath>
<g id="surface11" clip-path="url(#clip3)">
<path style=" stroke:none;fill-rule:evenodd;fill:rgb(99.607843%,100%,99.607843%);fill-opacity:1;" d="M 91.632812 11.449219 C 94.945312 11.429688 98.257812 11.449219 101.570312 11.5 C 105.976562 12.1875 107.972656 14.769531 107.5625 19.253906 C 107.320312 21.09375 106.347656 22.378906 104.644531 23.101562 C 104.550781 23.277344 104.519531 23.464844 104.542969 23.667969 C 105.832031 23.777344 106.632812 24.460938 106.949219 25.722656 C 107 28.597656 107.019531 31.472656 107 34.347656 C 105.53125 34.347656 104.0625 34.347656 102.597656 34.347656 C 102.613281 31.882812 102.597656 29.417969 102.542969 26.953125 C 102.398438 26.429688 102.074219 26.070312 101.570312 25.875 C 99.726562 25.824219 97.882812 25.804688 96.039062 25.824219 C 96.039062 28.664062 96.039062 31.503906 96.039062 34.347656 C 94.570312 34.347656 93.101562 34.347656 91.632812 34.347656 C 91.632812 26.714844 91.632812 19.082031 91.632812 11.449219 Z M 96.039062 15.660156 C 97.609375 15.640625 99.179688 15.660156 100.753906 15.710938 C 102.664062 16.167969 103.464844 17.382812 103.160156 19.355469 C 103.003906 20.367188 102.441406 21.035156 101.46875 21.355469 C 99.664062 21.503906 97.855469 21.558594 96.039062 21.511719 C 96.039062 19.558594 96.039062 17.609375 96.039062 15.660156 Z M 96.039062 15.660156 "/>
</g>
<mask id="mask3">
  <g filter="url(#alpha)">
<rect x="0" y="0" width="151" height="46" style="fill:rgb(0%,0%,0%);fill-opacity:0.980392;stroke:none;"/>
  </g>
</mask>
<clipPath id="clip4">
  <rect x="0" y="0" width="151" height="46"/>
</clipPath>
<g id="surface14" clip-path="url(#clip4)">
<path style=" stroke:none;fill-rule:evenodd;fill:rgb(99.607843%,100%,99.607843%);fill-opacity:1;" d="M 111.917969 11.449219 C 116.734375 11.449219 121.546875 11.449219 126.363281 11.449219 C 126.363281 12.851562 126.363281 14.253906 126.363281 15.660156 C 123.015625 15.660156 119.671875 15.660156 116.324219 15.660156 C 116.324219 17.371094 116.324219 19.082031 116.324219 20.792969 C 119.53125 20.792969 122.742188 20.792969 125.953125 20.792969 C 125.953125 22.195312 125.953125 23.597656 125.953125 25.003906 C 122.742188 25.003906 119.53125 25.003906 116.324219 25.003906 C 116.324219 26.714844 116.324219 28.425781 116.324219 30.136719 C 119.804688 30.136719 123.289062 30.136719 126.773438 30.136719 C 126.773438 31.539062 126.773438 32.941406 126.773438 34.347656 C 121.820312 34.347656 116.871094 34.347656 111.917969 34.347656 C 111.917969 26.714844 111.917969 19.082031 111.917969 11.449219 Z M 111.917969 11.449219 "/>
</g>
<mask id="mask4">
  <g filter="url(#alpha)">
<rect x="0" y="0" width="151" height="46" style="fill:rgb(0%,0%,0%);fill-opacity:0.972549;stroke:none;"/>
  </g>
</mask>
<clipPath id="clip5">
  <rect x="0" y="0" width="151" height="46"/>
</clipPath>
<g id="surface17" clip-path="url(#clip5)">
<path style=" stroke:none;fill-rule:evenodd;fill:rgb(99.607843%,100%,99.607843%);fill-opacity:1;" d="M 131.382812 11.449219 C 134.761719 11.429688 138.144531 11.449219 141.523438 11.5 C 145.390625 12.199219 147.371094 14.527344 147.464844 18.480469 C 147.523438 21.632812 146.160156 23.890625 143.367188 25.257812 C 142.871094 25.445312 142.355469 25.582031 141.832031 25.667969 C 139.820312 25.808594 137.804688 25.859375 135.789062 25.824219 C 135.789062 28.664062 135.789062 31.503906 135.789062 34.347656 C 134.320312 34.347656 132.851562 34.347656 131.382812 34.347656 C 131.382812 26.714844 131.382812 19.082031 131.382812 11.449219 Z M 135.789062 15.660156 C 137.394531 15.640625 138.996094 15.660156 140.601562 15.710938 C 142.179688 16.039062 143 17.015625 143.0625 18.636719 C 142.996094 20.089844 142.277344 21.03125 140.910156 21.460938 C 139.203125 21.511719 137.496094 21.527344 135.789062 21.511719 C 135.789062 19.558594 135.789062 17.609375 135.789062 15.660156 Z M 135.789062 15.660156 "/>
</g>
</defs>
<g id="surface1">
<use xlink:href="#surface5" mask="url(#mask0)"/>
<use xlink:href="#surface8" mask="url(#mask1)"/>
<use xlink:href="#surface11" mask="url(#mask2)"/>
<use xlink:href="#surface14" mask="url(#mask3)"/>
<use xlink:href="#surface17" mask="url(#mask4)"/>
</g>
</svg>
